<?xml version="1.0" encoding="UTF-8"?>
<!-- Generated by jsxcad -->
<!DOCTYPE svg PUBLIC "-//W3C//DTD SVG 1.1 Tiny//EN" "http://www.w3.org/Graphics/SVG/1.1/DTD/svg11-tiny.dtd">
<svg baseProfile="tiny" height="5.155698433968604mm" width="5.421022142882379mm" viewBox="0 0 5.421022142882379 5.155698433968604" version="1.1" stroke="black" stroke-width=".1" fill="none" xmlns="http://www.w3.org/2000/svg">
<path fill="#000000" stroke="#000000" d="M4.3857 0.27215 L5.42102 3.45855 L2.71051 5.42785 L0 3.45855 L1.03532 0.27215 z"/>
<path fill="#000000" stroke="#000000" d="M5.421019623309378 3.458549481529838 L5.421019623309378 3.458549481529838 L2.7105099978277356 5.427849997010134 L2.7105099978277356 5.427849997010134 z"/>
<path fill="#000000" stroke="#000000" d="M0.0000011170382747746135 3.4585484625287135 L0.0000011170382747746135 3.4585484625287135 L2.7105107425199177 5.42784897800901 L2.7105107425199177 5.42784897800901 z"/>
<path fill="#000000" stroke="#000000" d="M1.035323036276614 0.27215098654607506 L1.035323036276614 0.27215098654607506 L-6.90367618559228e-7 3.4585497756859627 L-6.90367618559228e-7 3.4585497756859627 z"/>
<path fill="#000000" stroke="#000000" d="M4.3857 0.27215078301570195 L4.3857 0.27215078301570195 L1.03532 0.27215078301570195 L1.03532 0.27215078301570195 z"/>
<path fill="#000000" stroke="#000000" d="M4.385698901978706 0.2721503567687452 L4.385698901978706 0.2721503567687452 L5.421022628622938 3.458549145908633 L5.421022628622938 3.458549145908633 z"/>
<path fill="#000000" stroke="#000000" d="M5.42102 3.45855 L4.3857 0.27215 L1.03532 0.27215 L0 3.45855 L2.71051 5.42785 z"/>
<path fill="#000000" stroke="#000000" d="M3.59219 1.36432 L4.1371 3.04137 L2.71051 4.07785 L1.28393 3.04137 L1.82883 1.36432 z"/>
<path fill="#000000" stroke="#000000" d="M4.137100803835214 3.0413711063842555 L4.137100803835214 3.0413711063842555 L2.7105099978277356 4.0778499970101345 L2.7105099978277356 4.0778499970101345 z"/>
<path fill="#000000" stroke="#000000" d="M1.2839264815974107 3.0413748426657126 L1.2839264815974107 3.0413748426657126 L2.7105107425199173 4.077848978009009 L2.7105107425199173 4.077848978009009 z"/>
<path fill="#000000" stroke="#000000" d="M1.8288339829718945 1.3643212941460179 L1.8288339829718945 1.3643212941460179 L1.283928034410803 3.041369361341355 L1.283928034410803 3.041369361341355 z"/>
<path fill="#000000" stroke="#000000" d="M3.59219 1.364323725421881 L3.59219 1.364323725421881 L1.82883 1.364323725421881 L1.82883 1.364323725421881 z"/>
<path fill="#000000" stroke="#000000" d="M3.5921879552834253 1.364320664368688 L3.5921879552834253 1.364320664368688 L4.137094858759545 3.0413716704902867 L4.137094858759545 3.0413716704902867 z"/>
<path fill="#000000" stroke="#000000" d="M4.1371 3.04137 L3.59219 1.36432 L1.82883 1.36432 L1.28393 3.04137 L2.71051 4.07785 z"/>
</svg>