<?xml version="1.0" encoding="UTF-8"?>
<!-- Generated by jsxcad -->
<!DOCTYPE svg PUBLIC "-//W3C//DTD SVG 1.1 Tiny//EN" "http://www.w3.org/Graphics/SVG/1.1/DTD/svg11-tiny.dtd">
<svg viewBox="-250 -250 500 500" width="500" height="500" xmlns="http://www.w3.org/2000/svg"><path d="M69.60344698399312,97.02320885579086L69.25287922680256,96.21474632684662L-38.195299915150294,-121.37727415721609z" style="fill:rgb(243,181,133)"/><path d="M-76.61509197270347,-101.4712849339565L38.03548392740359,112.42164579629706L38.499330141589176,113.17141680812439z" style="fill:rgb(17,63,134)"/><path d="M69.88227090648178,97.86393036431738L69.60344698399312,97.02320885579086L-37.875413206553155,-120.6082402744729z" style="fill:rgb(244,175,139)"/><path d="M-76.16322040989405,-100.77049701714672L38.499330141589176,113.17141680812439L39.03083617088571,113.88107253795985z" style="fill:rgb(20,59,140)"/><path d="M70.08792259835462,98.7332228276769L69.88227090648178,97.86393036431738L-37.64316576194426,-119.79814517685703z" style="fill:rgb(246,170,146)"/><path d="M-75.62727599291473,-100.1176187736206L39.03083617088571,113.88107253795985L39.62778050022872,114.54732611674342z" style="fill:rgb(24,55,146)"/><path d="M70.2192899394223,99.62722672336831L70.08792259835462,98.7332228276769L-37.49987875365927,-118.95051051514679z" style="fill:rgb(247,164,152)"/><path d="M-75.00940525615978,-99.5157363898586L39.62778050022872,114.54732611674342L40.287635345097826,115.16706161408727z" style="fill:rgb(28,51,153)"/><path d="M70.27559781996058,100.54197355025447L70.2192899394223,99.62722672336831L-37.44646416182871,-118.06902247057941z" style="fill:rgb(247,158,158)"/><path d="M-74.31215120733033,-98.9677213452061L40.287635345097826,115.16706161408727L41.007576543109096,115.73737293888317z" style="fill:rgb(33,47,159)"/><path d="M70.25641089315454,101.4733720920379L70.27559781996058,100.54197355025447L-37.48343893734315,-117.15760182328974z" style="fill:rgb(247,152,164)"/><path d="M-73.53842931481176,-98.476224362631L41.007576543109096,115.73737293888317L41.7844866278957,116.25555968411886z" style="fill:rgb(38,44,165)"/><path d="M70.16164000612514,102.41724537011245L70.25641089315454,101.4733720920379L-37.610903289829004,-116.22028640030896z" style="fill:rgb(246,146,170)"/><path d="M-72.69152960446756,-98.04364244591311L41.7844866278957,116.25555968411886L42.61497194377304,116.71913796019423z" style="fill:rgb(44,41,170)"/><path d="M69.99154544178418,103.36930753164975L70.16164000612514,102.41724537011245L-37.828533137726396,-115.26126845552298z" style="fill:rgb(244,139,175)"/><path d="M-71.7751007854518,-97.67211557546544L42.61497194377304,116.71913796019423L43.49537490180995,117.1258889703172z" style="fill:rgb(50,38,176)"/><path d="M69.74673321339785,104.32524908585187L69.99154544178418,103.36930753164975L-38.13559618722999,-114.28486016885019z" style="fill:rgb(243,133,181)"/><path d="M-70.79313364970812,-97.36350948196886L43.49537490180995,117.1258889703172L44.421795166756574,117.47381764136708z" style="fill:rgb(56,36,181)"/><path d="M69.42816262118214,105.28072497310305L69.74673321339785,104.32524908585187L-38.530923330910895,-113.29549216189518z" style="fill:rgb(240,127,186)"/><path d="M-69.74994970570894,-97.1194040113384L44.421795166756574,117.47381764136708L45.39009691496546,117.76123015226364z" style="fill:rgb(63,34,186)"/><path d="M69.03715311866334,106.2313395274818L69.42816262118214,105.28072497310305L-39.012930083846115,-112.29766986214581z" style="fill:rgb(237,120,191)"/><path d="M-68.65017979497125,-96.94109497902534L45.39009691496546,117.76123015226364L46.395929793889344,117.98667742368349z" style="fill:rgb(69,33,191)"/><path d="M68.57534596233393,107.17274802612387L69.03715311866334,106.2313395274818L-39.579612367557274,-111.29596465913777z" style="fill:rgb(234,114,195)"/><path d="M-67.49874727537465,-96.82955670174023L46.395929793889344,117.98667742368349L47.43475331825917,118.14900745134854z" style="fill:rgb(77,32,196)"/><path d="M68.0447454983871,108.10059106409292L68.57534596233393,107.17274802612387L-40.228558421963285,-110.29498816205071z" style="fill:rgb(230,108,199)"/><path d="M-66.3008466240618,-96.78546066338949L47.43475331825917,118.14900745134854L48.50185097420166,118.24737311037714z" style="fill:rgb(84,32,200)"/><path d="M67.44767633133964,109.01059772769845L68.0447454983871,108.10059106409292L-40.95694603693177,-109.29936133565921z" style="fill:rgb(226,101,203)"/><path d="M-65.06191274675464,-96.80916202355576L48.50185097420166,118.24737311037714L49.59236443478453,118.2812094176698z" style="fill:rgb(92,32,204)"/><path d="M66.78678480135638,109.89853561019963L67.44767633133964,109.01059772769845L-41.76156545335608,-108.31371249748513z" style="fill:rgb(221,95,207)"/><path d="M-63.78759747694662,-96.90068082272383L49.59236443478453,118.2812094176698L50.70130233965279,118.250272690078z" style="fill:rgb(99,32,208)"/><path d="M66.06503223231648,110.76027720009333L66.78678480135638,109.89853561019963L-42.638829808067925,-107.34263456034303z" style="fill:rgb(216,89,210)"/><path d="M-62.48375212539371,-97.0597288285824L50.70130233965279,118.250272690078L51.82357564319095,118.15460155415894z" style="fill:rgb(107,33,211)"/><path d="M65.28567746692005,111.5918142915683L66.06503223231648,110.76027720009333L-43.58478188675715,-106.39065981656043z" style="fill:rgb(210,84,213)"/><path d="M-61.156384005433615,-97.2856712968019L51.82357564319095,118.15460155415894L52.95401094798698,117.99458417260253z" style="fill:rgb(115,34,214)"/><path d="M64.4522655504806,112.38927422141043L65.28567746692005,111.5918142915683L-44.59512961007302,-105.46224147344905z" style="fill:rgb(204,78,216)"/><path d="M-59.81164343195067,-97.5775606121831L52.95401094798698,117.99458417260253L54.08739496886456,117.77086116634271z" style="fill:rgb(123,36,216)"/><path d="M63.56859282043878,113.1489241935487L64.4522655504806,112.38927422141043L-45.665249946094704,-104.56175462908442z" style="fill:rgb(198,73,218)"/><path d="M-58.4557664291203,-97.93412097716669L54.08739496886456,117.77086116634271L55.21848375363743,117.48442781170147z" style="fill:rgb(131,38,218)"/><path d="M62.63871635432988,113.86723152082043L63.56859282043878,113.1489241935487L-46.790216855357606,-103.69341598405796z" style="fill:rgb(191,68,220)"/><path d="M-57.095074681941185,-98.35376597668188L55.21848375363743,117.48442781170147L56.34204191240222,117.1365692547142z" style="fill:rgb(139,40,220)"/><path d="M-55.735911240137845,-98.83458580738294L56.34204191240222,117.1365692547142L57.45284632361573,116.72884790785349z" style="fill:rgb(147,43,221)"/><path d="M-49.1836426886456,-102.06938289555166L61.66691899029951,114.54082433404673L62.63871635432988,113.86723152082043z" style="fill:rgb(185,63,221)"/><path d="M-54.3846352789715,-99.3743837404655L57.45284632361573,116.72884790785349L58.54575372176159,116.26312750957248z" style="fill:rgb(155,46,222)"/><path d="M-50.44097085426086,-101.32132044270568L60.65768874405183,115.1665729421615L61.66691899029951,114.54082433404673z" style="fill:rgb(177,58,222)"/><path d="M-53.04756344221153,-99.97065846080856L58.54575372176159,116.26312750957248L59.61568751891868,115.74157086740654z" style="fill:rgb(162,50,222)"/><path d="M-51.73095597962295,-100.62065283464199L59.61568751891868,115.74157086740654L60.65768874405183,115.1665729421615z" style="fill:rgb(170,54,222)"/><path d="M-38.195299915150294,-121.37727415721609L-37.875413206553155,-120.6082402744729L69.60344698399312,97.02320885579086z" style="fill:rgb(243,181,133)"/><path d="M38.499330141589176,113.17141680812439L-76.16322040989405,-100.77049701714672L-76.61509197270347,-101.4712849339565z" style="fill:rgb(17,63,134)"/><path d="M-37.875413206553155,-120.6082402744729L-37.64316576194426,-119.79814517685703L69.88227090648178,97.86393036431738z" style="fill:rgb(244,175,139)"/><path d="M39.03083617088571,113.88107253795985L-75.62727599291473,-100.1176187736206L-76.16322040989405,-100.77049701714672z" style="fill:rgb(20,59,140)"/><path d="M-37.64316576194426,-119.79814517685703L-37.49987875365927,-118.95051051514679L70.08792259835462,98.7332228276769z" style="fill:rgb(246,170,146)"/><path d="M39.62778050022872,114.54732611674342L-75.00940525615978,-99.5157363898586L-75.62727599291473,-100.1176187736206z" style="fill:rgb(24,55,146)"/><path d="M-37.49987875365927,-118.95051051514679L-37.44646416182871,-118.06902247057941L70.2192899394223,99.62722672336831z" style="fill:rgb(247,164,152)"/><path d="M40.287635345097826,115.16706161408727L-74.31215120733033,-98.9677213452061L-75.00940525615978,-99.5157363898586z" style="fill:rgb(28,51,153)"/><path d="M-37.44646416182871,-118.06902247057941L-37.48343893734315,-117.15760182328974L70.27559781996058,100.54197355025447z" style="fill:rgb(247,158,158)"/><path d="M41.007576543109096,115.73737293888317L-73.53842931481176,-98.476224362631L-74.31215120733033,-98.9677213452061z" style="fill:rgb(33,47,159)"/><path d="M-37.48343893734315,-117.15760182328974L-37.610903289829004,-116.22028640030896L70.25641089315454,101.4733720920379z" style="fill:rgb(247,152,164)"/><path d="M41.7844866278957,116.25555968411886L-72.69152960446756,-98.04364244591311L-73.53842931481176,-98.476224362631z" style="fill:rgb(38,44,165)"/><path d="M-37.610903289829004,-116.22028640030896L-37.828533137726396,-115.26126845552298L70.16164000612514,102.41724537011245z" style="fill:rgb(246,146,170)"/><path d="M42.61497194377304,116.71913796019423L-71.7751007854518,-97.67211557546544L-72.69152960446756,-98.04364244591311z" style="fill:rgb(44,41,170)"/><path d="M-37.828533137726396,-115.26126845552298L-38.13559618722999,-114.28486016885019L69.99154544178418,103.36930753164975z" style="fill:rgb(244,139,175)"/><path d="M43.49537490180995,117.1258889703172L-70.79313364970812,-97.36350948196886L-71.7751007854518,-97.67211557546544z" style="fill:rgb(50,38,176)"/><path d="M-38.13559618722999,-114.28486016885019L-38.530923330910895,-113.29549216189518L69.74673321339785,104.32524908585187z" style="fill:rgb(243,133,181)"/><path d="M44.421795166756574,117.47381764136708L-69.74994970570894,-97.1194040113384L-70.79313364970812,-97.36350948196886z" style="fill:rgb(56,36,181)"/><path d="M-38.530923330910895,-113.29549216189518L-39.012930083846115,-112.29766986214581L69.42816262118214,105.28072497310305z" style="fill:rgb(240,127,186)"/><path d="M45.39009691496546,117.76123015226364L-68.65017979497125,-96.94109497902534L-69.74994970570894,-97.1194040113384z" style="fill:rgb(63,34,186)"/><path d="M-39.012930083846115,-112.29766986214581L-39.579612367557274,-111.29596465913777L69.03715311866334,106.2313395274818z" style="fill:rgb(237,120,191)"/><path d="M46.395929793889344,117.98667742368349L-67.49874727537465,-96.82955670174023L-68.65017979497125,-96.94109497902534z" style="fill:rgb(69,33,191)"/><path d="M-39.579612367557274,-111.29596465913777L-40.228558421963285,-110.29498816205071L68.57534596233393,107.17274802612387z" style="fill:rgb(234,114,195)"/><path d="M47.43475331825917,118.14900745134854L-66.3008466240618,-96.78546066338949L-67.49874727537465,-96.82955670174023z" style="fill:rgb(77,32,196)"/><path d="M-40.228558421963285,-110.29498816205071L-40.95694603693177,-109.29936133565921L68.0447454983871,108.10059106409292z" style="fill:rgb(230,108,199)"/><path d="M48.50185097420166,118.24737311037714L-65.06191274675464,-96.80916202355576L-66.3008466240618,-96.78546066338949z" style="fill:rgb(84,32,200)"/><path d="M-40.95694603693177,-109.29936133565921L-41.76156545335608,-108.31371249748513L67.44767633133964,109.01059772769845z" style="fill:rgb(226,101,203)"/><path d="M49.59236443478453,118.2812094176698L-63.78759747694662,-96.90068082272383L-65.06191274675464,-96.80916202355576z" style="fill:rgb(92,32,204)"/><path d="M-41.76156545335608,-108.31371249748513L-42.638829808067925,-107.34263456034303L66.78678480135638,109.89853561019963z" style="fill:rgb(221,95,207)"/><path d="M50.70130233965279,118.250272690078L-62.48375212539371,-97.0597288285824L-63.78759747694662,-96.90068082272383z" style="fill:rgb(99,32,208)"/><path d="M-42.638829808067925,-107.34263456034303L-43.58478188675715,-106.39065981656043L66.06503223231648,110.76027720009333z" style="fill:rgb(216,89,210)"/><path d="M51.82357564319095,118.15460155415894L-61.156384005433615,-97.2856712968019L-62.48375212539371,-97.0597288285824z" style="fill:rgb(107,33,211)"/><path d="M-43.58478188675715,-106.39065981656043L-44.59512961007302,-105.46224147344905L65.28567746692005,111.5918142915683z" style="fill:rgb(210,84,213)"/><path d="M52.95401094798698,117.99458417260253L-59.81164343195067,-97.5775606121831L-61.156384005433615,-97.2856712968019z" style="fill:rgb(115,34,214)"/><path d="M-44.59512961007302,-105.46224147344905L-45.665249946094704,-104.56175462908442L64.4522655504806,112.38927422141043z" style="fill:rgb(204,78,216)"/><path d="M54.08739496886456,117.77086116634271L-58.4557664291203,-97.93412097716669L-59.81164343195067,-97.5775606121831z" style="fill:rgb(123,36,216)"/><path d="M-45.665249946094704,-104.56175462908442L-46.790216855357606,-103.69341598405796L63.56859282043878,113.1489241935487z" style="fill:rgb(198,73,218)"/><path d="M55.21848375363743,117.48442781170147L-57.095074681941185,-98.35376597668188L-58.4557664291203,-97.93412097716669z" style="fill:rgb(131,38,218)"/><path d="M-46.790216855357606,-103.69341598405796L-47.96483261267768,-102.86132231984138L62.63871635432988,113.86723152082043z" style="fill:rgb(191,68,220)"/><path d="M56.34204191240222,117.1365692547142L-55.735911240137845,-98.83458580738294L-57.095074681941185,-98.35376597668188z" style="fill:rgb(139,40,220)"/><path d="M62.63871635432988,113.86723152082043L-47.96483261267768,-102.86132231984138L-49.1836426886456,-102.06938289555166z" style="fill:rgb(185,63,221)"/><path d="M57.45284632361573,116.72884790785349L-54.3846352789715,-99.3743837404655L-55.735911240137845,-98.83458580738294z" style="fill:rgb(147,43,221)"/><path d="M61.66691899029951,114.54082433404673L-49.1836426886456,-102.06938289555166L-50.44097085426086,-101.32132044270568z" style="fill:rgb(177,58,222)"/><path d="M58.54575372176159,116.26312750957248L-53.04756344221153,-99.97065846080856L-54.3846352789715,-99.3743837404655z" style="fill:rgb(155,46,222)"/><path d="M60.65768874405183,115.1665729421615L-50.44097085426086,-101.32132044270568L-51.73095597962295,-100.62065283464199z" style="fill:rgb(170,54,222)"/><path d="M59.61568751891868,115.74157086740654L-51.73095597962295,-100.62065283464199L-53.04756344221153,-99.97065846080856z" style="fill:rgb(162,50,222)"/><path d="M-62.007274740701924,-123.2539110812066L-63.28335501597255,-122.62311980745302L-64.53443533856004,-121.94467718101282zM-59.4019471812392,-124.3620254113156L-62.007274740701924,-123.2539110812066L-64.53443533856004,-121.94467718101282zM-59.4019471812392,-124.3620254113156L-60.711633551612266,-123.83438357489864L-62.007274740701924,-123.2539110812066zM-64.53443533856004,-121.94467718101282L-65.75518316721735,-121.2214933590275L-66.94038608272783,-120.45662712669396zM-59.4019471812392,-124.3620254113156L-64.53443533856004,-121.94467718101282L-69.18401090417287,-118.81495037886384zM-64.53443533856004,-121.94467718101282L-66.94038608272783,-120.45662712669396L-69.18401090417287,-118.81495037886384zM-56.762808920484005,-125.24995522131823L-58.08380193282267,-124.83456250520737L-59.4019471812392,-124.3620254113156zM-66.94038608272783,-120.45662712669396L-68.08496778776683,-119.65330449880614L-69.18401090417287,-118.81495037886384zM-54.134863858066666,-125.90220300256166L-56.762808920484005,-125.24995522131823L-59.4019471812392,-124.3620254113156zM-54.134863858066666,-125.90220300256166L-55.44461776380805,-125.6063724856849L-56.762808920484005,-125.24995522131823zM-76.5777936527305,-150.03086598356404L-78.83119136316104,-148.84605240510555L-81.03867935032434,-147.58718211971703zM-69.18401090417287,-118.81495037886384L-70.23277890275234,-117.94509616646594L-71.2267277024661,-117.04744128662719zM-71.96589862741276,-152.16153620278286L-74.28661427236379,-151.13736202244877L-76.5777936527305,-150.03086598356404zM-71.96589862741276,-152.16153620278286L-76.5777936527305,-150.03086598356404L-81.03867935032434,-147.58718211971703zM-81.03867935032434,-147.58718211971703L-83.19228055929447,-146.2587540020081L-85.2841886233597,-144.8655261453677zM-69.18401090417287,-118.81495037886384L-71.2267277024661,-117.04744128662719L-73.03308530144253,-115.18405494861173zM-67.26932748798328,-153.94821584441894L-69.6239903771446,-153.09964756311518L-71.96589862741276,-152.16153620278286zM-49.09189213599047,-126.45679905072704L-54.134863858066666,-125.90220300256166L-59.4019471812392,-124.3620254113156zM-62.55574860471294,-155.36431531248317L-71.96589862741276,-152.16153620278286L-81.03867935032434,-147.58718211971703zM-51.56311602008053,-126.30705776210554L-52.83917181189794,-126.13613979847236L-54.134863858066666,-125.90220300256166zM-81.03867935032434,-147.58718211971703L-85.2841886233597,-144.8655261453677L-89.25263281564592,-141.90466070672306zM-71.2267277024661,-117.04744128662719L-72.16152969281832,-116.12578969077187L-73.03308530144253,-115.18405494861173zM-59.4019471812392,-124.3620254113156L-69.18401090417287,-118.81495037886384L-75.81388050835629,-111.29773894285121zM-62.55574860471294,-155.36431531248317L-67.26932748798328,-153.94821584441894L-71.96589862741276,-152.16153620278286zM-85.2841886233597,-144.8655261453677L-87.30678376681816,-143.41243307016785L-89.25263281564592,-141.90466070672306zM-49.09189213599047,-126.45679905072704L-51.56311602008053,-126.30705776210554L-54.134863858066666,-125.90220300256166zM-62.55574860471294,-155.36431531248317L-64.91040206297514,-154.70406930922223L-67.26932748798328,-153.94821584441894zM-69.18401090417287,-118.81495037886384L-73.03308530144253,-115.18405494861173L-75.81388050835629,-111.29773894285121zM-49.09189213599047,-126.45679905072704L-50.312213390481126,-126.41414088133071L-51.56311602008053,-126.30705776210554zM-73.03308530144253,-115.18405494861173L-73.83754253522424,-114.22625251193504L-74.57131633155512,-113.25649038273771zM-81.03867935032434,-147.58718211971703L-89.25263281564592,-141.90466070672306L-96.12878915271762,-135.4367758511596zM-89.25263281564592,-141.90466070672306L-91.11456394344728,-140.3475684055515L-92.88563346506506,-138.74672136530538zM-73.03308530144253,-115.18405494861173L-74.57131633155512,-113.25649038273771L-75.81388050835629,-111.29773894285121zM-57.893463455844675,-156.38800537362303L-60.21391911070487,-155.92638206262126L-62.55574860471294,-155.36431531248317zM-46.76416922646959,-126.34788144159288L-47.9074806487201,-126.43473023824536L-49.09189213599047,-126.45679905072704zM-89.25263281564592,-141.90466070672306L-92.88563346506506,-138.74672136530538L-96.12878915271762,-135.4367758511596zM-74.57131633155512,-113.25649038273771L-75.23109750806829,-112.27891571580335L-75.81388050835629,-111.29773894285121zM-41.036974635372275,-124.4984620681805L-49.09189213599047,-126.45679905072704L-59.4019471812392,-124.3620254113156zM-53.3506512389206,-157.00245570161346L-57.893463455844675,-156.38800537362303L-62.55574860471294,-155.36431531248317zM-44.62087185741946,-125.9810496778604L-46.76416922646959,-126.34788144159288L-49.09189213599047,-126.45679905072704zM-41.036974635372275,-124.4984620681805L-59.4019471812392,-124.3620254113156L-75.81388050835629,-111.29773894285121zM-92.88563346506506,-138.74672136530538L-94.55916330206487,-137.10782753374548L-96.12878915271762,-135.4367758511596zM-44.89122040108266,-156.96338034461562L-62.55574860471294,-155.36431531248317L-81.03867935032434,-147.58718211971703zM-53.3506512389206,-157.00245570161346L-55.60288142637613,-156.74722922623639L-57.893463455844675,-156.38800537362303zM-44.62087185741946,-125.9810496778604L-45.667006702922876,-126.19648219438545L-46.76416922646959,-126.34788144159288zM-75.81388050835629,-111.29773894285121L-76.31695254739938,-110.31720545671158L-76.73794330584637,-109.34157830288021zM-41.036974635372275,-124.4984620681805L-44.62087185741946,-125.9810496778604L-49.09189213599047,-126.45679905072704zM-44.89122040108266,-156.96338034461562L-53.3506512389206,-157.00245570161346L-62.55574860471294,-155.36431531248317zM-96.12878915271762,-135.4367758511596L-97.5884347070384,-133.73959203095228L-98.93238249732376,-132.022416430728zM-75.81388050835629,-111.29773894285121L-76.73794330584637,-109.34157830288021L-77.56547027019306,-105.5730255921974zM-42.700205798551906,-125.3614167395923L-43.63044684851341,-125.70233794195596L-44.62087185741946,-125.9810496778604zM-76.73794330584637,-109.34157830288021L-77.07480344452499,-108.37511793911588L-77.32584265635423,-107.42207830628472zM-48.99467085479294,-157.19620778633228L-51.14514998746578,-157.1524285059301L-53.3506512389206,-157.00245570161346zM-41.036974635372275,-124.4984620681805L-42.700205798551906,-125.3614167395923L-44.62087185741946,-125.9810496778604zM-96.12878915271762,-135.4367758511596L-98.93238249732376,-132.022416430728L-101.25203834880081,-128.5532706729711zM-76.73794330584637,-109.34157830288021L-77.32584265635423,-107.42207830628472L-77.56547027019306,-105.5730255921974zM-44.89122040108266,-156.96338034461562L-48.99467085479294,-157.19620778633228L-53.3506512389206,-157.00245570161346zM-41.036974635372275,-124.4984620681805L-41.83438857866587,-124.95958979215449L-42.700205798551906,-125.3614167395923zM-77.32584265635423,-107.42207830628472L-77.4897211088056,-106.48666214215359L-77.56547027019306,-105.5730255921974zM-98.93238249732376,-132.022416430728L-100.15524849790808,-130.29152285912323L-101.25203834880081,-128.5532706729711zM-44.89122040108266,-156.96338034461562L-46.9073593841962,-157.13325676228752L-48.99467085479294,-157.19620778633228zM-81.03867935032434,-147.58718211971703L-96.12878915271762,-135.4367758511596L-105.02954632816872,-115.16197616429619zM-39.66192303105394,-123.40598553092808L-40.31168051136564,-123.97988959485896L-41.036974635372275,-124.4984620681805zM-75.81388050835629,-111.29773894285121L-77.56547027019306,-105.5730255921974L-75.00940525615978,-99.5157363898586zM-77.56547027019306,-105.5730255921974L-77.55249702415063,-104.68527057742082L-77.4505937912401,-103.82738941777505zM-44.89122040108266,-156.96338034461562L-81.03867935032434,-147.58718211971703L-105.02954632816872,-115.16197616429619zM-38.601124149893316,-122.10193697771595L-39.66192303105394,-123.40598553092808L-41.036974635372275,-124.4984620681805zM-101.25203834880081,-128.5532706729711L-102.21814737422469,-126.81409676345093L-103.04941760658843,-125.0805025561304zM-77.56547027019306,-105.5730255921974L-77.4505937912401,-103.82738941777505L-76.98111887437695,-102.21670275425878zM-41.10351436193424,-156.303956415596L-42.954067850646496,-156.68676972806762L-44.89122040108266,-156.96338034461562zM-38.601124149893316,-122.10193697771595L-39.09080941962226,-122.77912703735025L-39.66192303105394,-123.40598553092808zM-77.4505937912401,-103.82738941777505L-77.25994489278874,-103.00327849461043L-76.98111887437695,-102.21670275425878zM-96.12878915271762,-135.4367758511596L-101.25203834880081,-128.5532706729711L-105.02954632816872,-115.16197616429619zM-101.25203834880081,-128.5532706729711L-103.04941760658843,-125.0805025561304L-104.29291847707273,-121.65618718460202zM-37.49987875365927,-118.95051051514679L-38.601124149893316,-122.10193697771595L-41.036974635372275,-124.4984620681805zM-77.56547027019306,-105.5730255921974L-76.98111887437695,-102.21670275425878L-75.00940525615978,-99.5157363898586zM-37.69139404725301,-155.22398754645056L-41.10351436193424,-156.303956415596L-44.89122040108266,-156.96338034461562zM-75.81388050835629,-111.29773894285121L-57.095074681941185,-98.35376597668188L-41.036974635372275,-124.4984620681805zM-37.875413206553155,-120.6082402744729L-38.195299915150294,-121.37727415721609L-38.601124149893316,-122.10193697771595zM-76.98111887437695,-102.21670275425878L-76.61509197270347,-101.4712849339565L-76.16322040989405,-100.77049701714672zM-103.04941760658843,-125.0805025561304L-103.7420966770408,-123.35900735514221L-104.29291847707273,-121.65618718460202zM-37.69139404725301,-155.22398754645056L-39.34692217637397,-155.81592125532168L-41.10351436193424,-156.303956415596zM-37.49987875365927,-118.95051051514679L-37.875413206553155,-120.6082402744729L-38.601124149893316,-122.10193697771595zM-76.98111887437695,-102.21670275425878L-76.16322040989405,-100.77049701714672L-75.00940525615978,-99.5157363898586zM-37.49987875365927,-118.95051051514679L-37.64316576194426,-119.79814517685703L-37.875413206553155,-120.6082402744729zM-101.25203834880081,-128.5532706729711L-104.29291847707273,-121.65618718460202L-105.02954632816872,-115.16197616429619zM-76.16322040989405,-100.77049701714672L-75.62727599291473,-100.1176187736206L-75.00940525615978,-99.5157363898586zM-75.81388050835629,-111.29773894285121L-75.00940525615978,-99.5157363898586L-57.095074681941185,-98.35376597668188zM-39.579612367557274,-111.29596465913777L-37.49987875365927,-118.95051051514679L-41.036974635372275,-124.4984620681805zM-32.21082194907769,-151.85782076013214L-37.69139404725301,-155.22398754645056L-44.89122040108266,-156.96338034461562zM-104.29291847707273,-121.65618718460202L-104.69909431084501,-119.9785723005279L-104.95834472536029,-118.33269238068888zM-37.48343893734315,-117.15760182328974L-37.44646416182871,-118.06902247057941L-37.49987875365927,-118.95051051514679zM-75.00940525615978,-99.5157363898586L-74.31215120733033,-98.9677213452061L-73.53842931481176,-98.476224362631zM-34.71040292844103,-153.73574066158403L-36.14372961563644,-154.52988708435257L-37.69139404725301,-155.22398754645056zM-37.828533137726396,-115.26126845552298L-37.48343893734315,-117.15760182328974L-37.49987875365927,-118.95051051514679zM-75.00940525615978,-99.5157363898586L-73.53842931481176,-98.476224362631L-71.7751007854518,-97.67211557546544zM-104.29291847707273,-121.65618718460202L-104.95834472536029,-118.33269238068888L-105.02954632816872,-115.16197616429619zM-37.828533137726396,-115.26126845552298L-37.610903289829004,-116.22028640030896L-37.48343893734315,-117.15760182328974zM-32.21082194907769,-151.85782076013214L-34.71040292844103,-153.73574066158403L-37.69139404725301,-155.22398754645056zM-73.53842931481176,-98.476224362631L-72.69152960446756,-98.04364244591311L-71.7751007854518,-97.67211557546544zM-57.095074681941185,-98.35376597668188L-39.579612367557274,-111.29596465913777L-41.036974635372275,-124.4984620681805zM-39.579612367557274,-111.29596465913777L-37.828533137726396,-115.26126845552298L-37.49987875365927,-118.95051051514679zM-75.00940525615978,-99.5157363898586L-71.7751007854518,-97.67211557546544L-67.49874727537465,-96.82955670174023zM-104.95834472536029,-118.33269238068888L-105.06890039200492,-116.72503431295816L-105.02954632816872,-115.16197616429619z" style="fill:rgb(83,212,212)"/><path d="M-93.64499924992157,-91.97717093449236L-92.85166596360445,-90.71533522701513L-102.58099775364887,-108.23143589699283z" style="fill:rgb(17,63,135)"/><path d="M-38.530923330910895,-113.29549216189518L-38.13559618722999,-114.28486016885019L-37.828533137726396,-115.26126845552298zM-32.21082194907769,-151.85782076013214L-33.397524845051166,-152.8440826698167L-34.71040292844103,-153.73574066158403zM-71.7751007854518,-97.67211557546544L-70.79313364970812,-97.36350948196886L-69.74994970570894,-97.1194040113384z" style="fill:rgb(83,212,212)"/><path d="M-28.339288479371856,-145.63689490762718L-19.73324874695608,-127.5346442273592L-20.227414000311384,-128.9486230916849z" style="fill:rgb(244,177,137)"/><path d="M-39.579612367557274,-111.29596465913777L-38.530923330910895,-113.29549216189518L-37.828533137726396,-115.26126845552298zM-71.7751007854518,-97.67211557546544L-69.74994970570894,-97.1194040113384L-67.49874727537465,-96.82955670174023z" style="fill:rgb(83,212,212)"/><path d="M-92.85166596360445,-90.71533522701513L-91.91555011267099,-89.53244082907622L-101.64859493746744,-107.06301349809804z" style="fill:rgb(20,59,140)"/><path d="M-75.00940525615978,-99.5157363898586L-67.49874727537465,-96.82955670174023L-57.095074681941185,-98.35376597668188zM-39.579612367557274,-111.29596465913777L-39.012930083846115,-112.29766986214581L-38.530923330910895,-113.29549216189518zM-69.74994970570894,-97.1194040113384L-68.65017979497125,-96.94109497902534L-67.49874727537465,-96.82955670174023z" style="fill:rgb(83,212,212)"/><path d="M-28.004319313983512,-144.1659764526809L-19.387587135254226,-126.05294158302615L-19.73324874695608,-127.5346442273592z" style="fill:rgb(245,172,143)"/><path d="M-27.794621669537726,-141.03947511770014L-32.21082194907769,-151.85782076013214L-44.89122040108266,-156.96338034461562zM-105.02954632816872,-115.16197616429619L-104.83960842332368,-113.64983549163794L-104.49899553294108,-112.19478345149093z" style="fill:rgb(83,212,212)"/><path d="M-91.91555011267099,-89.53244082907622L-90.83961831300462,-88.43365163938083L-100.57401227678963,-105.97969666947884z" style="fill:rgb(24,55,146)"/><path d="M-40.95694603693177,-109.29936133565921L-40.228558421963285,-110.29498816205071L-39.579612367557274,-111.29596465913777zM-67.49874727537465,-96.82955670174023L-66.3008466240618,-96.78546066338949L-65.06191274675464,-96.80916202355576zM-30.236713969392902,-149.61511415851652L-31.15559760241671,-150.78025674361916L-32.21082194907769,-151.85782076013214zM-42.638829808067925,-107.34263456034303L-40.95694603693177,-109.29936133565921L-39.579612367557274,-111.29596465913777zM-67.49874727537465,-96.82955670174023L-65.06191274675464,-96.80916202355576L-62.48375212539371,-97.0597288285824z" style="fill:rgb(83,212,212)"/><path d="M-102.58099775364887,-108.23143589699283L-103.3683003348215,-109.4798443663241L-93.64499924992157,-91.97717093449236z" style="fill:rgb(17,63,135)"/><path d="M-27.82223605944102,-142.63155543169498L-19.192637410978048,-124.50909937663961L-19.387587135254226,-126.05294158302615z" style="fill:rgb(246,166,149)"/><path d="M-42.638829808067925,-107.34263456034303L-41.76156545335608,-108.31371249748513L-40.95694603693177,-109.29936133565921zM-65.06191274675464,-96.80916202355576L-63.78759747694662,-96.90068082272383L-62.48375212539371,-97.0597288285824zM-105.02954632816872,-115.16197616429619L-104.49899553294108,-112.19478345149093L-103.3683003348215,-109.4798443663241zM-46.790216855357606,-103.69341598405796L-42.638829808067925,-107.34263456034303L-39.579612367557274,-111.29596465913777zM-67.49874727537465,-96.82955670174023L-62.48375212539371,-97.0597288285824L-57.095074681941185,-98.35376597668188z" style="fill:rgb(83,212,212)"/><path d="M-20.227414000311384,-128.9486230916849L-28.824955067069812,-147.03878281571556L-28.339288479371856,-145.63689490762718z" style="fill:rgb(244,177,137)"/><path d="M-90.83961831300462,-88.43365163938083L-89.62742475124737,-87.42387235766958L-99.36079558836988,-104.98634196985373z" style="fill:rgb(28,51,152)"/><path d="M-57.095074681941185,-98.35376597668188L-46.790216855357606,-103.69341598405796L-39.579612367557274,-111.29596465913777zM-28.824955067069812,-147.03878281571556L-30.236713969392902,-149.61511415851652L-32.21082194907769,-151.85782076013214zM-44.59512961007302,-105.46224147344905L-43.58478188675715,-106.39065981656043L-42.638829808067925,-107.34263456034303zM-62.48375212539371,-97.0597288285824L-61.156384005433615,-97.2856712968019L-59.81164343195067,-97.5775606121831z" style="fill:rgb(83,212,212)"/><path d="M-101.64859493746744,-107.06301349809804L-102.58099775364887,-108.23143589699283L-92.85166596360445,-90.71533522701513z" style="fill:rgb(20,59,140)"/><path d="M-27.794621669537726,-141.03947511770014L-19.150009114018328,-122.90900903432791L-19.192637410978048,-124.50909937663961z" style="fill:rgb(247,161,155)"/><path d="M-46.790216855357606,-103.69341598405796L-44.59512961007302,-105.46224147344905L-42.638829808067925,-107.34263456034303zM-62.48375212539371,-97.0597288285824L-59.81164343195067,-97.5775606121831L-57.095074681941185,-98.35376597668188zM-46.790216855357606,-103.69341598405796L-45.665249946094704,-104.56175462908442L-44.59512961007302,-105.46224147344905zM-59.81164343195067,-97.5775606121831L-58.4557664291203,-97.93412097716669L-57.095074681941185,-98.35376597668188zM-104.49899553294108,-112.19478345149093L-104.00819076615107,-110.80283680376351L-103.3683003348215,-109.4798443663241z" style="fill:rgb(83,212,212)"/><path d="M-19.73324874695608,-127.5346442273592L-28.339288479371856,-145.63689490762718L-28.004319313983512,-144.1659764526809z" style="fill:rgb(245,172,143)"/><path d="M-89.62742475124737,-87.42387235766958L-88.28315904634613,-86.50766068055435L-98.01308826292232,-104.08745494643782z" style="fill:rgb(32,47,158)"/><path d="M-57.095074681941185,-98.35376597668188L-51.73095597962295,-100.62065283464199L-46.790216855357606,-103.69341598405796zM-49.1836426886456,-102.06938289555166L-47.96483261267768,-102.86132231984138L-46.790216855357606,-103.69341598405796zM-57.095074681941185,-98.35376597668188L-55.735911240137845,-98.83458580738294L-54.3846352789715,-99.3743837404655zM-51.73095597962295,-100.62065283464199L-49.1836426886456,-102.06938289555166L-46.790216855357606,-103.69341598405796zM-57.095074681941185,-98.35376597668188L-54.3846352789715,-99.3743837404655L-51.73095597962295,-100.62065283464199zM-51.73095597962295,-100.62065283464199L-50.44097085426086,-101.32132044270568L-49.1836426886456,-102.06938289555166zM-54.3846352789715,-99.3743837404655L-53.04756344221153,-99.97065846080856L-51.73095597962295,-100.62065283464199zM-28.824955067069812,-147.03878281571556L-29.4585412732814,-148.36646796472724L-30.236713969392902,-149.61511415851652z" style="fill:rgb(83,212,212)"/><path d="M-27.92243040774106,-139.39590128942928L-19.26069304621143,-121.25887841572185L-19.150009114018328,-122.90900903432791z" style="fill:rgb(247,155,161)"/><path d="M-100.57401227678963,-105.97969666947884L-101.64859493746744,-107.06301349809804L-91.91555011267099,-89.53244082907622z" style="fill:rgb(24,55,146)"/><path d="M-105.02954632816872,-115.16197616429619L-103.3683003348215,-109.4798443663241L-99.36079558836988,-104.98634196985373z" style="fill:rgb(83,212,212)"/><path d="M-88.28315904634613,-86.50766068055435L-86.81157471531351,-85.68925620361776L-96.53566439191152,-103.28721917305592z" style="fill:rgb(37,44,163)"/><path d="M-19.387587135254226,-126.05294158302615L-28.004319313983512,-144.1659764526809L-27.82223605944102,-142.63155543169498z" style="fill:rgb(246,166,149)"/><path d="M-105.02954632816872,-115.16197616429619L-47.104638957770625,-113.36907964251155L-44.89122040108266,-156.96338034461562zM-27.794621669537726,-141.03947511770014L-28.824955067069812,-147.03878281571556L-32.21082194907769,-151.85782076013214z" style="fill:rgb(83,212,212)"/><path d="M-28.205970776725476,-137.70727902633584L-19.525044103890753,-119.56518788587883L-19.26069304621143,-121.25887841572185z" style="fill:rgb(246,149,166)"/><path d="M-99.36079558836988,-104.98634196985373L-100.57401227678963,-105.97969666947884L-90.83961831300462,-88.43365163938083z" style="fill:rgb(28,51,152)"/><path d="M-86.81157471531351,-85.68925620361776L-85.21804705600884,-84.972510505851L-94.93387422081044,-102.58942473824283z" style="fill:rgb(42,41,169)"/><path d="M-103.3683003348215,-109.4798443663241L-102.58099775364887,-108.23143589699283L-101.64859493746744,-107.06301349809804z" style="fill:rgb(83,212,212)"/><path d="M-19.192637410978048,-124.50909937663961L-27.82223605944102,-142.63155543169498L-27.794621669537726,-141.03947511770014z" style="fill:rgb(247,161,155)"/><path d="M-28.644892072842772,-135.98027117078124L-19.94276777256191,-117.83462857119086L-19.525044103890753,-119.56518788587883z" style="fill:rgb(245,143,172)"/><path d="M-28.004319313983512,-144.1659764526809L-28.339288479371856,-145.63689490762718L-28.824955067069812,-147.03878281571556z" style="fill:rgb(83,212,212)"/><path d="M-98.01308826292232,-104.08745494643782L-99.36079558836988,-104.98634196985373L-89.62742475124737,-87.42387235766958z" style="fill:rgb(32,47,158)"/><path d="M-85.21804705600884,-84.972510505851L-83.50849841567508,-84.36088034917557L-93.21368078334378,-101.9974680345793z" style="fill:rgb(48,39,174)"/><path d="M-103.3683003348215,-109.4798443663241L-101.64859493746744,-107.06301349809804L-99.36079558836988,-104.98634196985373z" style="fill:rgb(83,212,212)"/><path d="M-19.150009114018328,-122.90900903432791L-27.794621669537726,-141.03947511770014L-27.92243040774106,-139.39590128942928z" style="fill:rgb(247,155,161)"/><path d="M-29.238171580423934,-134.22184145126616L-20.512906063322138,-116.07417727194392L-19.94276777256191,-117.83462857119086z" style="fill:rgb(244,137,177)"/><path d="M-27.794621669537726,-141.03947511770014L-28.004319313983512,-144.1659764526809L-28.824955067069812,-147.03878281571556z" style="fill:rgb(83,212,212)"/><path d="M-96.53566439191152,-103.28721917305592L-98.01308826292232,-104.08745494643782L-88.28315904634613,-86.50766068055435z" style="fill:rgb(37,44,163)"/><path d="M-83.50849841567508,-84.36088034917557L-81.68942918989606,-83.85742406555632L-91.3816091208257,-101.51433600628373z" style="fill:rgb(54,37,179)"/><path d="M-19.26069304621143,-121.25887841572185L-27.92243040774106,-139.39590128942928L-28.205970776725476,-137.70727902633584z" style="fill:rgb(246,149,166)"/><path d="M-101.64859493746744,-107.06301349809804L-100.57401227678963,-105.97969666947884L-99.36079558836988,-104.98634196985373zM-47.104638957770625,-113.36907964251155L-27.794621669537726,-141.03947511770014L-44.89122040108266,-156.96338034461562z" style="fill:rgb(83,212,212)"/><path d="M-29.9841051336398,-132.43909216329286L-21.233834779358705,-114.29097720572602L-20.512906063322138,-116.07417727194392z" style="fill:rgb(242,131,182)"/><path d="M-94.93387422081044,-102.58942473824283L-96.53566439191152,-103.28721917305592L-86.81157471531351,-85.68925620361776z" style="fill:rgb(42,41,169)"/><path d="M-27.794621669537726,-141.03947511770014L-27.82223605944102,-142.63155543169498L-28.004319313983512,-144.1659764526809z" style="fill:rgb(83,212,212)"/><path d="M-81.68942918989606,-83.85742406555632L-79.7678773624068,-83.46472825364147L-89.44471762737673,-101.14254469865524z" style="fill:rgb(60,35,184)"/><path d="M-105.02954632816872,-115.16197616429619L-99.36079558836988,-104.98634196985373L-85.28741517787121,-100.74077619294977z" style="fill:rgb(83,212,212)"/><path d="M-19.525044103890753,-119.56518788587883L-28.205970776725476,-137.70727902633584L-28.644892072842772,-135.98027117078124z" style="fill:rgb(245,143,172)"/><path d="M-30.88030691025302,-130.6393707315844L-22.10325319527014,-112.49233131100169L-21.233834779358705,-114.29097720572602z" style="fill:rgb(240,125,187)"/><path d="M-79.7678773624068,-83.46472825364147L-77.7513838453636,-83.18494047939505L-87.41062098067324,-100.88416620740499z" style="fill:rgb(66,34,189)"/><path d="M-93.21368078334378,-101.9974680345793L-94.93387422081044,-102.58942473824283L-85.21804705600884,-84.972510505851z" style="fill:rgb(48,39,174)"/><path d="M-31.923701161179338,-128.83008913561866L-23.118184162570536,-110.68569105292825L-22.10325319527014,-112.49233131100169z" style="fill:rgb(237,120,191)"/><path d="M-19.94276777256191,-117.83462857119086L-28.644892072842772,-135.98027117078124L-29.238171580423934,-134.22184145126616z" style="fill:rgb(244,137,177)"/><path d="M-99.36079558836988,-104.98634196985373L-98.01308826292232,-104.08745494643782L-96.53566439191152,-103.28721917305592z" style="fill:rgb(83,212,212)"/><path d="M-77.7513838453636,-83.18494047939505L-75.64797939073934,-83.01971477256971L-85.28741517787121,-100.74077619294977z" style="fill:rgb(73,33,193)"/><path d="M-91.3816091208257,-101.51433600628373L-93.21368078334378,-101.9974680345793L-83.50849841567508,-84.36088034917557z" style="fill:rgb(54,37,179)"/><path d="M-28.205970776725476,-137.70727902633584L-27.92243040774106,-139.39590128942928L-27.794621669537726,-141.03947511770014z" style="fill:rgb(83,212,212)"/><path d="M-33.11054271184297,-127.01881861006376L-24.27498371421921,-108.87860928398406L-23.118184162570536,-110.68569105292825z" style="fill:rgb(234,114,195)"/><path d="M-20.512906063322138,-116.07417727194392L-29.238171580423934,-134.22184145126616L-29.9841051336398,-132.43909216329286z" style="fill:rgb(242,131,182)"/><path d="M-75.64797939073934,-83.01971477256971L-73.46615757805434,-82.97021538908785L-83.0836565687348,-100.71345653462272z" style="fill:rgb(79,32,198)"/><path d="M-99.36079558836988,-104.98634196985373L-96.53566439191152,-103.28721917305592L-93.21368078334378,-101.9974680345793z" style="fill:rgb(83,212,212)"/><path d="M-89.44471762737673,-101.14254469865524L-91.3816091208257,-101.51433600628373L-81.68942918989606,-83.85742406555632z" style="fill:rgb(60,35,184)"/><path d="M-34.4363993229924,-125.21318025490783L-25.56934140253381,-107.07867456719889L-24.27498371421921,-108.87860928398406z" style="fill:rgb(230,108,199)"/><path d="M-29.238171580423934,-134.22184145126616L-28.205970776725476,-137.70727902633584L-27.794621669537726,-141.03947511770014z" style="fill:rgb(83,212,212)"/><path d="M-73.46615757805434,-82.97021538908785L-71.21482292597067,-83.03709282456033L-80.80833871417165,-100.8027727249692z" style="fill:rgb(86,32,201)"/><path d="M-21.233834779358705,-114.29097720572602L-29.9841051336398,-132.43909216329286L-30.88030691025302,-130.6393707315844z" style="fill:rgb(240,125,187)"/><path d="M-35.896187559716225,-123.42083178851209L-26.996297333225208,-105.29353176354195L-25.56934140253381,-107.07867456719889z" style="fill:rgb(226,102,203)"/><path d="M-96.53566439191152,-103.28721917305592L-94.93387422081044,-102.58942473824283L-93.21368078334378,-101.9974680345793z" style="fill:rgb(83,212,212)"/><path d="M-87.41062098067324,-100.88416620740499L-89.44471762737673,-101.14254469865524L-79.7678773624068,-83.46472825364147z" style="fill:rgb(66,34,189)"/><path d="M-71.21482292597067,-83.03709282456033L-68.90324920702004,-83.22047995553119L-78.47085006654933,-101.00876979007627z" style="fill:rgb(94,32,205)"/><path d="M-29.238171580423934,-134.22184145126616L-28.644892072842772,-135.98027117078124L-28.205970776725476,-137.70727902633584z" style="fill:rgb(83,212,212)"/><path d="M-22.10325319527014,-112.49233131100169L-30.88030691025302,-130.6393707315844L-31.923701161179338,-128.83008913561866z" style="fill:rgb(237,120,191)"/><path d="M-37.48417585956426,-121.64944077384568L-28.550255797037003,-103.53079954807835L-26.996297333225208,-105.29353176354195z" style="fill:rgb(222,96,207)"/><path d="M-105.02954632816872,-115.16197616429619L-85.28741517787121,-100.74077619294977L-47.104638957770625,-113.36907964251155zM-99.36079558836988,-104.98634196985373L-93.21368078334378,-101.9974680345793L-85.28741517787121,-100.74077619294977z" style="fill:rgb(83,212,212)"/><path d="M-68.90324920702004,-83.22047995553119L-66.54105270500982,-83.51997871538262L-76.08091848143617,-101.33095934100756z" style="fill:rgb(101,32,208)"/><path d="M-85.28741517787121,-100.74077619294977L-87.41062098067324,-100.88416620740499L-77.7513838453636,-83.18494047939505z" style="fill:rgb(73,33,193)"/><path d="M-39.19401533716587,-119.90660856662319L-30.225006703765008,-101.79803770389476L-28.550255797037003,-103.53079954807835z" style="fill:rgb(217,91,210)"/><path d="M-33.11054271184297,-127.01881861006376L-29.238171580423934,-134.22184145126616L-27.794621669537726,-141.03947511770014z" style="fill:rgb(83,212,212)"/><path d="M-23.118184162570536,-110.68569105292825L-31.923701161179338,-128.83008913561866L-33.11054271184297,-127.01881861006376z" style="fill:rgb(234,114,195)"/><path d="M-66.54105270500982,-83.51997871538262L-64.13814823591206,-83.93465405955266L-73.64856657705145,-101.7683138032525z" style="fill:rgb(108,33,211)"/><path d="M-41.018757269680606,-118.19984290849997L-32.01375276908207,-100.10271919641066L-30.225006703765008,-101.79803770389476z" style="fill:rgb(212,85,213)"/><path d="M-83.0836565687348,-100.71345653462272L-85.28741517787121,-100.74077619294977L-75.64797939073934,-83.01971477256971z" style="fill:rgb(79,32,198)"/><path d="M-64.13814823591206,-83.93465405955266L-61.70468110435659,-84.46304952013128L-71.184078410468,-102.31928234657978z" style="fill:rgb(116,34,214)"/><path d="M-93.21368078334378,-101.9974680345793L-91.3816091208257,-101.51433600628373L-89.44471762737673,-101.14254469865524z" style="fill:rgb(83,212,212)"/><path d="M-24.27498371421921,-108.87860928398406L-33.11054271184297,-127.01881861006376L-34.4363993229924,-125.21318025490783z" style="fill:rgb(230,108,199)"/><path d="M-42.9508884732123,-116.53655019331696L-33.90913725342068,-98.45218747798677L-32.01375276908207,-100.10271919641066z" style="fill:rgb(206,80,215)"/><path d="M-61.70468110435659,-84.46304952013128L-59.25099239025621,-85.10317368351082L-68.69793238075958,-102.98177827589912z" style="fill:rgb(123,36,216)"/><path d="M-30.88030691025302,-130.6393707315844L-29.9841051336398,-132.43909216329286L-29.238171580423934,-134.22184145126616z" style="fill:rgb(83,212,212)"/><path d="M-80.80833871417165,-100.8027727249692L-83.0836565687348,-100.71345653462272L-73.46615757805434,-82.97021538908785z" style="fill:rgb(86,32,201)"/><path d="M-44.98236056374003,-114.92395495298231L-35.903273971819964,-96.85360473318819L-33.90913725342068,-98.45218747798677z" style="fill:rgb(200,75,217)"/><path d="M-59.25099239025621,-85.10317368351082L-56.78755620689117,-85.85250271910407L-66.20075502925872,-103.75318126370422z" style="fill:rgb(131,38,218)"/><path d="M-93.21368078334378,-101.9974680345793L-89.44471762737673,-101.14254469865524L-85.28741517787121,-100.74077619294977z" style="fill:rgb(83,212,212)"/><path d="M-25.56934140253381,-107.07867456719889L-34.4363993229924,-125.21318025490783L-35.896187559716225,-123.42083178851209z" style="fill:rgb(226,102,203)"/><path d="M-47.104638957770625,-113.36907964251155L-37.98779226251118,-95.31392594388291L-35.903273971819964,-96.85360473318819z" style="fill:rgb(194,70,219)"/><path d="M-56.78755620689117,-85.85250271910407L-54.32493045427047,-86.70800461203393L-63.70326404980707,-104.63036287093502z" style="fill:rgb(138,40,220)"/><path d="M-49.30872977192464,-111.8787020877247L-40.1538803593475,-93.83985612973373L-37.98779226251118,-95.31392594388291z" style="fill:rgb(188,65,220)"/><path d="M-78.47085006654933,-101.00876979007627L-80.80833871417165,-100.8027727249692L-71.21482292597067,-83.03709282456033z" style="fill:rgb(94,32,205)"/><path d="M-54.32493045427047,-86.70800461203393L-51.87370324690157,-87.66614646217228L-61.21621351897565,-105.60969388580729z" style="fill:rgb(146,43,221)"/><path d="M-33.11054271184297,-127.01881861006376L-30.88030691025302,-130.6393707315844L-29.238171580423934,-134.22184145126616z" style="fill:rgb(83,212,212)"/><path d="M-42.392305556558405,-92.43780031611216L-40.1538803593475,-93.83985612973373L-49.30872977192464,-111.8787020877247z" style="fill:rgb(181,61,221)"/><path d="M-51.87370324690157,-87.66614646217228L-49.44443250183199,-88.72289757400104L-58.75031068348579,-106.68704763426067z" style="fill:rgb(153,46,222)"/><path d="M-44.693502825862964,-91.11386903208096L-42.392305556558405,-92.43780031611216L-51.585242044839376,-110.45930931926097z" style="fill:rgb(175,57,222)"/><path d="M-49.44443250183199,-88.72289757400104L-47.047590657933604,-89.87378751809608L-56.316213906485,-107.85785988133668z" style="fill:rgb(160,49,222)"/><path d="M-47.047590657933604,-89.87378751809608L-44.693502825862964,-91.11386903208096L-53.92441903923943,-109.11709106577995z" style="fill:rgb(168,53,222)"/><path d="M-26.996297333225208,-105.29353176354195L-35.896187559716225,-123.42083178851209L-37.48417585956426,-121.64944077384568z" style="fill:rgb(222,96,207)"/><path d="M-89.44471762737673,-101.14254469865524L-87.41062098067324,-100.88416620740499L-85.28741517787121,-100.74077619294977z" style="fill:rgb(83,212,212)"/><path d="M-76.08091848143617,-101.33095934100756L-78.47085006654933,-101.00876979007627L-68.90324920702004,-83.22047995553119z" style="fill:rgb(101,32,208)"/><path d="M-47.104638957770625,-113.36907964251155L-33.11054271184297,-127.01881861006376L-27.794621669537726,-141.03947511770014z" style="fill:rgb(83,212,212)"/><path d="M-28.550255797037003,-103.53079954807835L-37.48417585956426,-121.64944077384568L-39.19401533716587,-119.90660856662319z" style="fill:rgb(217,91,210)"/><path d="M-33.11054271184297,-127.01881861006376L-31.923701161179338,-128.83008913561866L-30.88030691025302,-130.6393707315844z" style="fill:rgb(83,212,212)"/><path d="M-73.64856657705145,-101.7683138032525L-76.08091848143617,-101.33095934100756L-66.54105270500982,-83.51997871538262z" style="fill:rgb(108,33,211)"/><path d="M-30.225006703765008,-101.79803770389476L-39.19401533716587,-119.90660856662319L-41.018757269680606,-118.19984290849997z" style="fill:rgb(212,85,213)"/><path d="M-71.184078410468,-102.31928234657978L-73.64856657705145,-101.7683138032525L-64.13814823591206,-83.93465405955266z" style="fill:rgb(116,34,214)"/><path d="M-32.01375276908207,-100.10271919641066L-41.018757269680606,-118.19984290849997L-42.9508884732123,-116.53655019331696z" style="fill:rgb(206,80,215)"/><path d="M-85.28741517787121,-100.74077619294977L-83.0836565687348,-100.71345653462272L-80.80833871417165,-100.8027727249692z" style="fill:rgb(83,212,212)"/><path d="M-68.69793238075958,-102.98177827589912L-71.184078410468,-102.31928234657978L-61.70468110435659,-84.46304952013128z" style="fill:rgb(123,36,216)"/><path d="M-33.90913725342068,-98.45218747798677L-42.9508884732123,-116.53655019331696L-44.98236056374003,-114.92395495298231z" style="fill:rgb(200,75,217)"/><path d="M-35.896187559716225,-123.42083178851209L-34.4363993229924,-125.21318025490783L-33.11054271184297,-127.01881861006376z" style="fill:rgb(83,212,212)"/><path d="M-66.20075502925872,-103.75318126370422L-68.69793238075958,-102.98177827589912L-59.25099239025621,-85.10317368351082z" style="fill:rgb(131,38,218)"/><path d="M-35.903273971819964,-96.85360473318819L-44.98236056374003,-114.92395495298231L-47.104638957770625,-113.36907964251155z" style="fill:rgb(194,70,219)"/><path d="M-85.28741517787121,-100.74077619294977L-80.80833871417165,-100.8027727249692L-76.08091848143617,-101.33095934100756z" style="fill:rgb(83,212,212)"/><path d="M-63.70326404980707,-104.63036287093502L-66.20075502925872,-103.75318126370422L-56.78755620689117,-85.85250271910407z" style="fill:rgb(138,40,220)"/><path d="M-37.98779226251118,-95.31392594388291L-47.104638957770625,-113.36907964251155L-49.30872977192464,-111.8787020877247z" style="fill:rgb(188,65,220)"/><path d="M-61.21621351897565,-105.60969388580729L-63.70326404980707,-104.63036287093502L-54.32493045427047,-86.70800461203393z" style="fill:rgb(146,43,221)"/><path d="M-39.19401533716587,-119.90660856662319L-35.896187559716225,-123.42083178851209L-33.11054271184297,-127.01881861006376z" style="fill:rgb(83,212,212)"/><path d="M-49.30872977192464,-111.8787020877247L-51.585242044839376,-110.45930931926097L-42.392305556558405,-92.43780031611216z" style="fill:rgb(181,61,221)"/><path d="M-58.75031068348579,-106.68704763426067L-61.21621351897565,-105.60969388580729L-51.87370324690157,-87.66614646217228z" style="fill:rgb(153,46,222)"/><path d="M-51.585242044839376,-110.45930931926097L-53.92441903923943,-109.11709106577995L-44.693502825862964,-91.11386903208096z" style="fill:rgb(175,57,222)"/><path d="M-56.316213906485,-107.85785988133668L-58.75031068348579,-106.68704763426067L-49.44443250183199,-88.72289757400104z" style="fill:rgb(160,49,222)"/><path d="M-53.92441903923943,-109.11709106577995L-56.316213906485,-107.85785988133668L-47.047590657933604,-89.87378751809608z" style="fill:rgb(168,53,222)"/><path d="M-80.80833871417165,-100.8027727249692L-78.47085006654933,-101.00876979007627L-76.08091848143617,-101.33095934100756zM-85.28741517787121,-100.74077619294977L-76.08091848143617,-101.33095934100756L-66.20075502925872,-103.75318126370422zM-39.19401533716587,-119.90660856662319L-37.48417585956426,-121.64944077384568L-35.896187559716225,-123.42083178851209zM-47.104638957770625,-113.36907964251155L-39.19401533716587,-119.90660856662319L-33.11054271184297,-127.01881861006376zM-85.28741517787121,-100.74077619294977L-66.20075502925872,-103.75318126370422L-47.104638957770625,-113.36907964251155zM-76.08091848143617,-101.33095934100756L-73.64856657705145,-101.7683138032525L-71.184078410468,-102.31928234657978zM-42.9508884732123,-116.53655019331696L-41.018757269680606,-118.19984290849997L-39.19401533716587,-119.90660856662319zM-76.08091848143617,-101.33095934100756L-71.184078410468,-102.31928234657978L-66.20075502925872,-103.75318126370422zM-47.104638957770625,-113.36907964251155L-42.9508884732123,-116.53655019331696L-39.19401533716587,-119.90660856662319zM-71.184078410468,-102.31928234657978L-68.69793238075958,-102.98177827589912L-66.20075502925872,-103.75318126370422zM-47.104638957770625,-113.36907964251155L-44.98236056374003,-114.92395495298231L-42.9508884732123,-116.53655019331696zM-66.20075502925872,-103.75318126370422L-63.70326404980707,-104.63036287093502L-61.21621351897565,-105.60969388580729zM-66.20075502925872,-103.75318126370422L-56.316213906485,-107.85785988133668L-47.104638957770625,-113.36907964251155zM-51.585242044839376,-110.45930931926097L-49.30872977192464,-111.8787020877247L-47.104638957770625,-113.36907964251155zM-66.20075502925872,-103.75318126370422L-61.21621351897565,-105.60969388580729L-56.316213906485,-107.85785988133668zM-56.316213906485,-107.85785988133668L-51.585242044839376,-110.45930931926097L-47.104638957770625,-113.36907964251155zM-61.21621351897565,-105.60969388580729L-58.75031068348579,-106.68704763426067L-56.316213906485,-107.85785988133668zM-56.316213906485,-107.85785988133668L-53.92441903923943,-109.11709106577995L-51.585242044839376,-110.45930931926097z" style="fill:rgb(83,212,212)"/></svg>
